<svg xmlns="http://www.w3.org/2000/svg" version="1.1" xmlns:xlink="http://www.w3.org/1999/xlink" xmlns:svgjs="http://svgjs.dev/svgjs" width="2000" height="393" viewBox="0 0 2000 393"><g transform="matrix(1,0,0,1,-1.2121212121212466,-0.4765801256601776)"><svg viewBox="0 0 396 78" data-background-color="#ffffff" preserveAspectRatio="xMidYMid meet" height="393" width="2000" xmlns="http://www.w3.org/2000/svg" xmlns:xlink="http://www.w3.org/1999/xlink"><g id="tight-bounds" transform="matrix(1,0,0,1,0.2400000000000091,0.09458842188675476)"><svg viewBox="0 0 395.52 77.8108231562265" height="77.8108231562265" width="395.52"><g><svg viewBox="0 0 529.3300874733776 104.13534038142417" height="77.8108231562265" width="395.52"><g transform="matrix(1,0,0,1,133.8100874733776,20.642676659017397)"><svg viewBox="0 0 395.52 62.84998706338938" height="62.84998706338938" width="395.52"><g id="textblocktransform"><svg viewBox="0 0 395.52 62.84998706338938" height="62.84998706338938" width="395.52" id="textblock"><g><svg viewBox="0 0 395.52 62.84998706338938" height="62.84998706338938" width="395.52"><g transform="matrix(1,0,0,1,0,0)"><svg width="395.52" viewBox="2.34 -35.49890909090909 226.46 35.98890909090909" height="62.84998706338938" data-palette-color="#000000"><path d="M37.33-10.3L37.33-10.3Q37.33-8.42 36.85-6.92 36.38-5.42 35.6-4.27 34.81-3.13 33.76-2.32 32.71-1.51 31.59-1 30.47-0.49 29.31-0.24 28.15 0 27.12 0L27.12 0 2.64 0 2.64-6.35 27.12-6.35Q28.96-6.35 29.97-7.42 30.98-8.5 30.98-10.3L30.98-10.3Q30.98-11.18 30.71-11.91 30.44-12.65 29.94-13.18 29.44-13.72 28.72-14.01 28-14.31 27.12-14.31L27.12-14.31 12.52-14.31Q10.99-14.31 9.2-14.86 7.42-15.41 5.9-16.63 4.37-17.85 3.36-19.82 2.34-21.8 2.34-24.66L2.34-24.66Q2.34-27.51 3.36-29.48 4.37-31.45 5.9-32.68 7.42-33.91 9.2-34.46 10.99-35.01 12.52-35.01L12.52-35.01 34.13-35.01 34.13-28.66 12.52-28.66Q10.72-28.66 9.7-27.56 8.69-26.46 8.69-24.66L8.69-24.66Q8.69-22.83 9.7-21.77 10.72-20.7 12.52-20.7L12.52-20.7 27.12-20.7 27.17-20.7Q28.2-20.68 29.35-20.42 30.49-20.17 31.63-19.63 32.76-19.09 33.79-18.27 34.81-17.46 35.61-16.31 36.4-15.16 36.87-13.67 37.33-12.18 37.33-10.3ZM71.38-20.7L71.38-14.31 51.34-14.31 51.34-20.7 71.38-20.7ZM74.24-6.35L74.24 0 51.34 0Q50.02 0 48.46-0.46 46.9-0.93 45.57-1.99 44.24-3.05 43.34-4.75 42.45-6.45 42.45-8.91L42.45-8.91 42.45-31.81Q42.45-32.47 42.7-33.06 42.94-33.64 43.37-34.08 43.8-34.52 44.38-34.77 44.97-35.01 45.65-35.01L45.65-35.01 74.24-35.01 74.24-28.66 48.8-28.66 48.8-8.91Q48.8-7.67 49.46-7.01 50.12-6.35 51.39-6.35L51.39-6.35 74.24-6.35ZM112.52-6.35L112.52 0 83.56 0Q82.88 0 82.29-0.24 81.71-0.49 81.28-0.92 80.85-1.34 80.61-1.93 80.37-2.51 80.37-3.2L80.37-3.2 80.37-35.01 86.71-35.01 86.71-6.35 112.52-6.35ZM145.82-20.7L145.82-14.31 125.77-14.31 125.77-20.7 145.82-20.7ZM148.67-6.35L148.67 0 125.77 0Q124.46 0 122.89-0.46 121.33-0.93 120-1.99 118.67-3.05 117.78-4.75 116.89-6.45 116.89-8.91L116.89-8.91 116.89-31.81Q116.89-32.47 117.13-33.06 117.38-33.64 117.8-34.08 118.23-34.52 118.82-34.77 119.4-35.01 120.09-35.01L120.09-35.01 148.67-35.01 148.67-28.66 123.23-28.66 123.23-8.91Q123.23-7.67 123.89-7.01 124.55-6.35 125.82-6.35L125.82-6.35 148.67-6.35ZM189.78-35.01L189.78-2.71Q189.78-2.03 189.53-1.44 189.27-0.85 188.84-0.43 188.42 0 187.83 0.24 187.25 0.49 186.59 0.49L186.59 0.49Q186 0.49 185.4 0.27 184.8 0.05 184.34-0.44L184.34-0.44 161.15-24.66 161.15 0 154.8 0 154.8-32.3Q154.8-33.28 155.35-34.07 155.9-34.86 156.75-35.25L156.75-35.25Q157.66-35.62 158.61-35.44 159.56-35.25 160.24-34.55L160.24-34.55 183.44-10.35 183.44-35.01 189.78-35.01ZM225.94-20.7L225.94-14.31 205.9-14.31 205.9-20.7 225.94-20.7ZM228.8-6.35L228.8 0 205.9 0Q204.58 0 203.01-0.46 201.45-0.93 200.12-1.99 198.79-3.05 197.9-4.75 197.01-6.45 197.01-8.91L197.01-8.91 197.01-31.81Q197.01-32.47 197.25-33.06 197.5-33.64 197.92-34.08 198.35-34.52 198.94-34.77 199.52-35.01 200.21-35.01L200.21-35.01 228.8-35.01 228.8-28.66 203.36-28.66 203.36-8.91Q203.36-7.67 204.02-7.01 204.68-6.35 205.94-6.35L205.94-6.35 228.8-6.35Z" opacity="1" transform="matrix(1,0,0,1,0,0)" fill="#000000" class="wordmark-text-0" data-fill-palette-color="primary" id="text-0"></path></svg></g></svg></g></svg></g></svg></g><g><svg viewBox="0 0 104.13534038142417 104.13534038142417" height="104.13534038142417" width="104.13534038142417"><g><svg></svg></g><g id="icon-0"><svg viewBox="0 0 104.13534038142417 104.13534038142417" height="104.13534038142417" width="104.13534038142417"><g><path d="M0 52.068c0-28.756 23.311-52.068 52.068-52.068 28.756 0 52.068 23.311 52.067 52.068 0 28.756-23.311 52.068-52.067 52.067-28.756 0-52.068-23.311-52.068-52.067zM52.068 98.467c25.626 0 46.4-20.774 46.399-46.399 0-25.626-20.774-46.4-46.399-46.4-25.626 0-46.4 20.774-46.4 46.4 0 25.626 20.774 46.4 46.4 46.399z" data-fill-palette-color="accent" fill="#000000" stroke="transparent"></path></g><g transform="matrix(1,0,0,1,23.27207601873858,30.700184078303536)"><svg viewBox="0 0 57.59118834394701 42.7349722248171" height="42.7349722248171" width="57.59118834394701"><g><svg xmlns="http://www.w3.org/2000/svg" viewBox="16.95399537168081 25.48709242706271 66.07200925663838 49.02808158007154" x="0" y="0" height="42.7349722248171" width="57.59118834394701" class="icon-dxe-0" data-fill-palette-color="accent" id="dxe-0"><path d="M29.18 70.38A11.94 11.94 0 0 1 20.18 66.3 12.55 12.55 0 0 1 18.38 52.09L21.38 45.99A2.08 2.08 0 0 1 23 44.87 2 2 0 0 1 24.75 45.45L25.75 46.45A3.14 3.14 0 0 1 26.44 49.72L24.47 55A3.19 3.19 0 0 0 25.33 58.56 3 3 0 0 0 28.8 58.96L33.39 56.23A1 1 0 0 0 33.82 55 17.12 17.12 0 0 1 37.82 37.62 16.38 16.38 0 0 1 56.39 34.1 1 1 0 0 0 57.15 34.1L66.47 30.37A12 12 0 0 1 79.8 33.67 12.55 12.55 0 0 1 81.6 47.88L78.6 53.98A2.08 2.08 0 0 1 77 55.13 2 2 0 0 1 75.25 54.55L74.25 53.55A3.14 3.14 0 0 1 73.56 50.28L75.53 45A3.19 3.19 0 0 0 74.67 41.44 3 3 0 0 0 71.2 41.04L66.2 43.76A1 1 0 0 0 65.71 45 17.23 17.23 0 0 1 61.47 61.7 16.58 16.58 0 0 1 44.06 65.7 1 1 0 0 0 43.37 65.7L33.53 69.6A12.7 12.7 0 0 1 29.18 70.38M23.3 46.85L20.2 53A10.58 10.58 0 0 0 21.7 65 10 10 0 0 0 32.82 67.76L42.63 63.83A3 3 0 0 1 44.74 63.83 14.57 14.57 0 0 0 60 60.26 15.23 15.23 0 0 0 63.78 45.5 3 3 0 0 1 65.22 42L70.22 39.27A5 5 0 0 1 76 40 5.21 5.21 0 0 1 77.42 45.75L75.48 51A1.13 1.13 0 0 0 75.72 52.18L76.72 53.18 79.8 47A10.58 10.58 0 0 0 78.3 35 10 10 0 0 0 67.18 32.24L57.89 36A3 3 0 0 1 55.57 35.93 14.39 14.39 0 0 0 39.27 39 15.13 15.13 0 0 0 35.72 54.4 3 3 0 0 1 34.42 57.93L29.78 60.69A5 5 0 0 1 24 60 5.21 5.21 0 0 1 22.58 54.25L24.52 49A1.13 1.13 0 0 0 24.28 47.82Z" fill="#000000" data-fill-palette-color="accent"></path><path d="M26 44.41A0.5 0.5 0 0 1 25.62 43.58 53.4 53.4 0 0 1 39.62 32.38C51.68 25.57 65.01 23.61 73.62 27.38A0.5 0.5 0 1 1 73.22 28.3C64.92 24.65 51.93 26.6 40.14 33.3A52.4 52.4 0 0 0 26.43 44.3 0.5 0.5 0 0 1 26 44.41" fill="#000000" data-fill-palette-color="accent"></path><path d="M36.55 74.51A25.1 25.1 0 0 1 26.4 72.59 0.5 0.5 0 1 1 26.81 71.68C35.11 75.36 48.12 73.43 59.94 66.75A52.4 52.4 0 0 0 73.65 55.75 0.5 0.5 0 1 1 74.4 56.41 53.4 53.4 0 0 1 60.4 67.61C52.44 72.12 43.9 74.51 36.55 74.51" fill="#000000" data-fill-palette-color="accent"></path></svg></g></svg></g></svg></g></svg></g></svg></g><defs></defs></svg><rect width="395.52" height="77.8108231562265" fill="none" stroke="none" visibility="hidden"></rect></g></svg></g></svg>